<svg xmlns="http://www.w3.org/2000/svg" viewBox="0 0 512 512"><title>Logo Instagram</title><path d="M349.33 69.33c-16.17 0-29.16 13.1-29.16 29.17s13.1 29.17 29.16 29.17 29.16-13.1 29.16-29.17-13.01-29.17-29.16-29.17zm0 48.67c-10.89 0-19.67-8.78-19.67-19.5 0-10.72 8.78-19.5 19.67-19.5s19.67 8.78 19.67 19.5c0 10.72-8.78 19.5-19.67 19.5zm104.42-40.92c-8.93 0-16.34 7.41-16.34 16.34s7.41 16.34 16.34 16.34 16.34-7.41 16.34-16.34-7.41-16.34-16.34-16.34zm-104.42 88.76c-94.3 0-171.91 77.61-171.91 171.91 0 94.3 77.61 171.91 171.91 171.91 94.3 0 171.91-77.61 171.91-171.91 0-94.3-77.61-171.91-171.91-171.91zm0 274.58c-56.57 0-102.67-46.09-102.67-102.67 0-56.57 46.1-102.67 102.67-102.67 56.57 0 102.67 46.09 102.67 102.67 0 56.58-46.1 102.67-102.67 102.67zm0 0" fill="#000000"/>
</svg>
